<?xml version="1.0" encoding="UTF-8" standalone="no"?>
<svg width="1200" height="630" viewBox="0 0 1200 630" xmlns="http://www.w3.org/2000/svg">
  <!-- Black background -->
  <rect width="1200" height="630" fill="#000000"/>
  
  <!-- Grid background pattern -->
  <g stroke="#222" stroke-width="0.5" opacity="0.3">
    <!-- Horizontal grid lines -->
    <line x1="0" y1="30" x2="1200" y2="30"/>
    <line x1="0" y1="90" x2="1200" y2="90"/>
    <line x1="0" y1="150" x2="1200" y2="150"/>
    <line x1="0" y1="210" x2="1200" y2="210"/>
    <line x1="0" y1="270" x2="1200" y2="270"/>
    <line x1="0" y1="330" x2="1200" y2="330"/>
    <line x1="0" y1="390" x2="1200" y2="390"/>
    <line x1="0" y1="450" x2="1200" y2="450"/>
    <line x1="0" y1="510" x2="1200" y2="510"/>
    <line x1="0" y1="570" x2="1200" y2="570"/>
    
    <!-- Vertical grid lines -->
    <line x1="60" y1="0" x2="60" y2="630"/>
    <line x1="120" y1="0" x2="120" y2="630"/>
    <line x1="180" y1="0" x2="180" y2="630"/>
    <line x1="240" y1="0" x2="240" y2="630"/>
    <line x1="300" y1="0" x2="300" y2="630"/>
    <line x1="360" y1="0" x2="360" y2="630"/>
    <line x1="420" y1="0" x2="420" y2="630"/>
    <line x1="480" y1="0" x2="480" y2="630"/>
    <line x1="540" y1="0" x2="540" y2="630"/>
    <line x1="600" y1="0" x2="600" y2="630"/>
    <line x1="660" y1="0" x2="660" y2="630"/>
    <line x1="720" y1="0" x2="720" y2="630"/>
    <line x1="780" y1="0" x2="780" y2="630"/>
    <line x1="840" y1="0" x2="840" y2="630"/>
    <line x1="900" y1="0" x2="900" y2="630"/>
    <line x1="960" y1="0" x2="960" y2="630"/>
    <line x1="1020" y1="0" x2="1020" y2="630"/>
    <line x1="1080" y1="0" x2="1080" y2="630"/>
    <line x1="1140" y1="0" x2="1140" y2="630"/>
  </g>

  <!-- Corner decorations -->
  <g stroke="#FF6600" stroke-width="4" opacity="0.8">
    <path d="M 30 30 L 150 30 L 150 32 L 32 32 L 32 150 L 30 150 Z"/>
    <path d="M 1170 30 L 1050 30 L 1050 32 L 1168 32 L 1168 150 L 1170 150 Z"/>
    <path d="M 30 600 L 150 600 L 150 598 L 32 598 L 32 480 L 30 480 Z"/>
    <path d="M 1170 600 L 1050 600 L 1050 598 L 1168 598 L 1168 480 L 1170 480 Z"/>
  </g>

  <!-- NERV logo watermark -->
  <text x="600" y="315" font-family="Arial, sans-serif" font-size="220" font-weight="bold" fill="#FF6600" opacity="0.1" text-anchor="middle">NERV</text>

  <!-- Title with orange bar -->
  <rect x="0" y="0" width="1200" height="14" fill="#FF6600" opacity="0.5"/>
  <text x="600" y="35" font-family="monospace" font-size="16" fill="#FF6600" text-anchor="middle" letter-spacing="2">NERV ADVANCED AUTHENTICATION PROTOCOL</text>

  <!-- Main title -->
  <text x="600" y="180" font-family="Arial, sans-serif" font-size="60" font-weight="bold" fill="#FF6600" text-anchor="middle">OpenRouter MAGI Interface</text>
  <text x="600" y="240" font-family="monospace" font-size="26" fill="#66CCFF" text-anchor="middle">ADVANCED AUTHENTICATION SYSTEM</text>

  <!-- Features -->
  <g font-family="monospace" font-size="24" fill="#44FF66">
    <text x="600" y="320" text-anchor="middle">• STATE-OF-THE-ART OAUTH IMPLEMENTATION</text>
    <text x="600" y="360" text-anchor="middle">• ROBUST ERROR DIAGNOSTICS</text>
    <text x="600" y="400" text-anchor="middle">• EVANGELION-THEMED INTERFACE</text>
    <text x="600" y="440" text-anchor="middle">• MULTI-MODEL AI SUPPORT</text>
  </g>

  <!-- Hex patterns -->
  <g stroke="#FF6600" stroke-width="2" fill="none" opacity="0.4">
    <polygon points="100,520 125,535 125,565 100,580 75,565 75,535"/>
    <polygon points="1100,520 1125,535 1125,565 1100,580 1075,565 1075,535"/>
  </g>

  <!-- Bottom message -->
  <text x="600" y="580" font-family="monospace" font-size="18" fill="#FFFFFF" text-anchor="middle">SYNCHRONIZE AND DEPLOY • ANNO 2025</text>
</svg>